# xmcd
#
# Track frame offsets:
#	150
#	12304
#	24275
#	38618
#	50329
#	64073
#	80731
#	95648
#	109009
#	122261
#	131841
#	147924
#
# Disc length: 2117 seconds
#
# Revision: 1
# Processed by: cddbd v1.5.2PL0 Copyright (c) Steve Scherf et al.
# Submitted via: audiograbber 1.83.01
#
DISCID=9908430c
DTITLE=Various Artist - Country Favorites Disc 4 of 4
DYEAR=1900
DGENRE=Country
TTITLE0=Freddy Fender (Live) - Before The Next Teardrop Falls
TTITLE1=Holly Dunn - There Goes My Heart Again
TTITLE2=Exile - Woke Up In Love
TTITLE3=Lacy J. Dalton - Hillbilly Girl With The Blues
TTITLE4=Moe Bandy - Too Old To Die Young
TTITLE5=T.G. Sheppard - Last Cheater's Waltz
TTITLE6=Donna Fargo - That Was Yesterday
TTITLE7=B.J. Thomas - Raindrops Keep Falling On My Head
TTITLE8=Janie Frickie - He's A Heartache
TTITLE9=Willie Nelson - Half A MAn
TTITLE10=Juice Newton - Hurt
TTITLE11=Faron Young - Wine Me Up
EXTD=
EXTT0=
EXTT1=
EXTT2=
EXTT3=
EXTT4=
EXTT5=
EXTT6=
EXTT7=
EXTT8=
EXTT9=
EXTT10=
EXTT11=
PLAYORDER=
